<?xml version="1.0" standalone="no"?>
<!DOCTYPE svg PUBLIC "-//W3C//DTD SVG 20010904//EN"
 "http://www.w3.org/TR/2001/REC-SVG-20010904/DTD/svg10.dtd">
<svg version="1.0" xmlns="http://www.w3.org/2000/svg"
 width="700.000000pt" height="700.000000pt" viewBox="0 0 700.000000 700.000000"
 preserveAspectRatio="xMidYMid meet">
<metadata>
Created by potrace 1.14, written by Peter Selinger 2001-2017
</metadata>
<g transform="translate(0.000000,700.000000) scale(0.100000,-0.100000)"
fill="#000000" stroke="none">
<path d="M2343 5054 l-243 -225 208 -227 c114 -125 364 -399 555 -609 l349
-381 115 126 c64 70 128 139 142 155 l27 28 141 -155 141 -155 393 432 c217
237 467 511 557 608 l162 178 -242 225 -243 226 -910 -1 -910 0 -242 -225z
m562 -2 c-33 -31 -100 -94 -149 -140 l-89 -82 19 -22 c10 -12 171 -188 357
-391 185 -204 337 -374 337 -378 0 -5 -37 -49 -82 -99 l-82 -91 -47 48 c-110
111 -839 917 -837 924 2 4 71 71 153 148 l150 140 165 0 165 1 -60 -58z m1038
-88 l157 -145 -253 -277 c-138 -152 -275 -300 -302 -330 l-51 -55 -254 279
c-140 154 -276 302 -303 330 l-48 52 158 146 157 146 292 0 291 0 156 -146z
m563 4 c85 -79 154 -145 154 -149 0 -6 -764 -846 -839 -922 l-47 -48 -82 91
c-45 50 -82 94 -82 99 0 4 152 175 338 378 185 203 346 380 356 392 l19 21
-94 88 c-52 48 -119 110 -149 139 l-55 53 163 0 163 0 155 -142z"/>
<path d="M3514 4926 c80 -75 107 -107 101 -117 -5 -8 -76 -87 -158 -176 l-149
-163 54 -61 53 -61 30 35 c16 19 113 125 215 236 102 112 185 206 185 210 0 3
-47 50 -105 104 l-105 97 -115 -1 -115 0 109 -103z"/>
<path d="M4100 2765 l0 -285 35 0 35 0 0 96 0 96 103 -96 c96 -90 105 -96 145
-96 l43 0 -110 106 c-61 58 -111 109 -111 113 1 3 47 47 104 96 l104 90 -39 3
c-38 3 -46 -2 -137 -81 l-97 -85 -3 164 -2 164 -35 0 -35 0 0 -285z"/>
<path d="M2337 3029 c-78 -23 -126 -102 -108 -182 5 -21 15 -45 22 -53 20 -25
79 -50 153 -67 94 -21 120 -42 124 -98 2 -37 -1 -49 -23 -69 -37 -35 -129 -39
-210 -11 -32 12 -61 21 -62 21 -2 0 -3 -15 -3 -34 0 -29 5 -36 33 -46 51 -19
181 -24 231 -10 85 23 125 89 113 182 -10 72 -57 107 -187 137 -91 21 -120 41
-120 83 0 42 17 68 55 84 54 22 120 16 208 -21 14 -6 17 -2 17 28 0 31 -4 36
-32 46 -47 17 -167 22 -211 10z"/>
<path d="M2800 2950 c0 -57 -1 -60 -25 -60 -20 0 -25 -5 -25 -25 0 -20 5 -25
25 -25 l25 0 0 -134 c0 -73 5 -147 11 -165 15 -43 54 -61 134 -61 62 0 65 1
65 24 0 21 -5 24 -56 29 -84 9 -84 8 -84 168 l0 139 70 0 c68 0 70 1 70 25 0
24 -2 25 -70 25 l-70 0 0 60 0 60 -35 0 -35 0 0 -60z"/>
<path d="M3223 2889 c-40 -10 -43 -12 -43 -44 l0 -34 35 15 c19 7 61 14 94 14
67 0 105 -23 116 -71 l7 -26 -89 -5 c-140 -7 -193 -44 -193 -138 0 -83 49
-130 134 -130 53 0 93 14 124 42 l22 21 0 -26 c0 -24 4 -27 36 -27 l37 0 -5
154 c-5 167 -14 197 -71 240 -32 24 -135 31 -204 15z m207 -224 c0 -36 -23
-86 -53 -113 -32 -30 -107 -34 -137 -7 -23 21 -27 81 -7 108 13 19 77 34 150
36 44 1 47 -1 47 -24z"/>
<path d="M3850 2889 c-14 -6 -35 -20 -47 -31 l-23 -21 0 26 c0 24 -4 27 -35
27 l-35 0 0 -205 0 -205 35 0 35 0 0 133 c0 184 27 232 128 225 41 -3 42 -3
42 29 0 32 -2 33 -37 32 -21 0 -49 -5 -63 -10z"/>
</g>
</svg>
